<?xml version="1.0" encoding="UTF-8"?>
<!DOCTYPE svg PUBLIC "-//W3C//DTD SVG 1.1//EN" "http://www.w3.org/Graphics/SVG/1.1/DTD/svg11.dtd">
<!-- Creator: CorelDRAW X7 -->
<svg xmlns="http://www.w3.org/2000/svg" xml:space="preserve" width="512px" height="512px" version="1.1" style="shape-rendering:geometricPrecision; text-rendering:geometricPrecision; image-rendering:optimizeQuality; fill-rule:evenodd; clip-rule:evenodd"
viewBox="0 0 512 512"
 xmlns:xlink="http://www.w3.org/1999/xlink">
 <defs>
  <style type="text/css">
   <![CDATA[
    .fil0 {fill:#FFA358;fill-rule:nonzero}
   ]]>
  </style>
 </defs>
 <g id="Layer_x0020_1">
  <metadata id="CorelCorpID_0Corel-Layer"/>
  <path class="fil0" d="M149 385c-1,0 -2,0 -2,0 -1,0 -2,0 -2,0 -14,-3 -25,-7 -32,-12 -8,-5 -13,-11 -16,-18 -3,-7 -5,-15 -5,-24l1 -29c0,-8 -1,-14 -3,-18 -2,-5 -5,-8 -9,-10 -4,-2 -8,-4 -13,-4l-2 0c-3,0 -6,-1 -9,-4 -2,-2 -4,-5 -4,-9 0,-4 2,-7 4,-9 3,-3 6,-4 9,-4l2 0c5,0 9,-2 13,-4 4,-2 7,-5 9,-10 2,-5 3,-10 3,-17l-1 -30c0,-6 1,-12 3,-18 1,-6 4,-11 8,-16 4,-4 9,-8 16,-12 7,-3 15,-6 26,-8 5,-1 9,0 12,3 2,2 4,6 4,10 0,2 -1,4 -3,6 -2,2 -4,4 -7,5 -8,3 -13,5 -17,9 -4,3 -7,6 -8,11 -1,4 -2,9 -2,15l1 30c0,11 -3,20 -8,26 -6,6 -13,11 -23,14l0 -2c10,4 17,8 23,14 5,6 8,15 8,26l-1 30c0,6 1,11 2,15 1,4 4,8 8,11 4,3 9,6 17,9 6,3 10,7 10,12 0,3 -2,6 -4,9 -2,2 -5,3 -8,3z"/>
  <path id="1" class="fil0" d="M260 173l-62 145c-1,3 -3,6 -6,8 -3,2 -6,3 -9,3 -5,0 -9,-1 -12,-4 -2,-3 -3,-6 -3,-11 0,-1 0,-3 1,-5l71 -171c1,-3 3,-6 7,-8 3,-3 6,-3 10,-3 3,0 6,1 9,3 3,2 5,5 7,8l70 168c1,2 1,4 1,6 0,6 -1,10 -5,13 -3,3 -7,4 -11,4 -3,0 -6,-1 -9,-3 -3,-2 -5,-5 -6,-8l-62 -143 9 -2zm-53 110l15 -33 77 0 6 33 -98 0z"/>
  <path id="2" class="fil0" d="M363 385c-4,0 -7,-1 -9,-5 -2,-3 -3,-6 -3,-8 0,-3 1,-5 3,-7 2,-2 4,-3 7,-4 8,-3 14,-6 17,-9 4,-3 7,-7 8,-11 1,-5 2,-10 2,-16l-1 -29c0,-12 3,-20 8,-26 6,-6 14,-11 23,-14l0 1c-9,-3 -17,-8 -23,-14 -5,-6 -8,-15 -8,-26l1 -29c0,-6 -1,-11 -2,-16 -1,-4 -4,-7 -8,-11 -4,-3 -9,-6 -17,-9 -6,-2 -10,-6 -10,-12 0,-3 2,-6 4,-8 2,-3 5,-4 8,-4 1,0 2,0 2,0 1,0 2,0 2,0 14,3 25,7 32,12 8,5 13,11 16,19 3,7 5,15 5,24l-1 29c0,7 1,13 3,18 2,4 6,8 9,10 4,2 9,3 13,3l2 0c3,0 6,2 9,4 2,3 4,6 4,9 0,4 -2,7 -4,10 -3,2 -6,4 -9,4l-2 0c-5,0 -9,1 -13,3 -4,3 -7,6 -9,10 -2,5 -3,11 -3,18l1 29c0,7 -1,13 -3,19 -1,6 -4,11 -8,15 -4,5 -9,9 -16,12 -7,4 -15,6 -26,9 0,0 -1,0 -2,0 0,0 -1,0 -2,0z"/>
 </g>
</svg>
